HIERARCHY
ROOT Hips
{
  OFFSET -35.2597 29.1586 114.425
  CHANNELS 6 Xposition Yposition Zposition Zrotation Xrotation Yrotation
  JOINT LeftUpLeg
  {
    OFFSET 8.64259 1.95398 -2.38835
    CHANNELS 3 Zrotation Xrotation Yrotation
    JOINT LeftLeg
    {
      OFFSET 43.7702 0 0
      CHANNELS 3 Zrotation Xrotation Yrotation
      JOINT LeftFoot
      {
        OFFSET 40.6238 0 0
        CHANNELS 3 Zrotation Xrotation Yrotation
        JOINT LeftToeBase
        {
          OFFSET 12.7242 0 0
          CHANNELS 3 Zrotation Xrotation Yrotation
          End Site
          {
            OFFSET 0 0 0
          }
        }
      }
    }
  }
  JOINT RightUpLeg
  {
    OFFSET -8.2249 1.95398 -2.59336
    CHANNELS 3 Zrotation Xrotation Yrotation
    JOINT RightLeg
    {
      OFFSET 43.5653 0 0
      CHANNELS 3 Zrotation Xrotation Yrotation
      JOINT RightFoot
      {
        OFFSET 40.6238 0 0
        CHANNELS 3 Zrotation Xrotation Yrotation
        JOINT RightToeBase
        {
          OFFSET 12.7242 0 0
          CHANNELS 3 Zrotation Xrotation Yrotation
          End Site
          {
            OFFSET 0 0 0
          }
        }
      }
    }
  }
  JOINT Spine
  {
    OFFSET 0.165834 0.87714 6.61349
    CHANNELS 3 Zrotation Xrotation Yrotation
    JOINT Spine1
    {
      OFFSET 7.38963 1.71661e-005 0
      CHANNELS 3 Zrotation Xrotation Yrotation
      JOINT Spine2
      {
        OFFSET 11.9445 1.14441e-005 0
        CHANNELS 3 Zrotation Xrotation Yrotation
        JOINT Spine3
        {
          OFFSET 14.7254 4.19617e-005 0
          CHANNELS 3 Zrotation Xrotation Yrotation
          JOINT Spine4
          {
            OFFSET 10.9679 0 0
            CHANNELS 3 Zrotation Xrotation Yrotation
            JOINT RightShoulder
            {
              OFFSET 2.46616 -1.6653 3.69651
              CHANNELS 3 Zrotation Xrotation Yrotation
              JOINT RightArm
              {
                OFFSET 13.0012 0 0
                CHANNELS 3 Zrotation Xrotation Yrotation
                JOINT RightForeArm
                {
                  OFFSET 28.7848 1.62311e-005 0
                  CHANNELS 3 Zrotation Xrotation Yrotation
                  JOINT RightHand
                  {
                    OFFSET 26.5688 1.62095e-005 0
                    CHANNELS 3 Zrotation Xrotation Yrotation
                    End Site
                    {
                      OFFSET 0 0 0
                    }
                  }
                }
              }
            }
            JOINT LeftShoulder
            {
              OFFSET 2.38034 -1.29275 -3.7523
              CHANNELS 3 Zrotation Xrotation Yrotation
              JOINT LeftArm
              {
                OFFSET 16.3182 6.07031e-005 0
                CHANNELS 3 Zrotation Xrotation Yrotation
                JOINT LeftForeArm
                {
                  OFFSET 27.0901 0 0
                  CHANNELS 3 Zrotation Xrotation Yrotation
                  JOINT LeftHand
                  {
                    OFFSET 24.5451 1.51738e-005 0
                    CHANNELS 3 Zrotation Xrotation Yrotation
                    End Site
                    {
                      OFFSET 0 0 0
                    }
                  }
                }
              }
            }
            JOINT Neck
            {
              OFFSET 5.0226 -0.0266342 0
              CHANNELS 3 Zrotation Xrotation Yrotation
              JOINT Head
              {
                OFFSET 6.69364 2.86102e-005 0
                CHANNELS 3 Zrotation Xrotation Yrotation
                End Site
                {
                  OFFSET 0 0 0
                }
              }
            }
          }
        }
      }
    }
  }
}
MOTION
Frames:	18
Frame Time:	0.0416667
-229.612 621.821 1812.15 -85.7365 -43.5789 -94.8666 -162.325 -11.5278 -167.537 -0.444582 31.747 -0.0541854 55.0869 -69.3168 -65.4386 5.98946 18.3895 -44.2077 170.292 -17.6156 58.9199 -4.06515 -22.4993 1.12526 114.983 9.41267 2.99849 -0.719675 -11.1301 42.5319 1.64654 7.99787 -90.2603 10.8928 3.15788 -0.815606 -0.774682 3.11894 -0.95393 -23.3408 3.25688 0.172193 -3.32813 3.25688 0.172189 91.908 -21.5175 -106.151 30.814 -4.1821 -84.7977 -4.41088 -26.3362 -5.03069 -55.9009 28.568 -56.9937 -81.6587 -53.4538 91.5329 -37.4516 -3.63393 -28.6546 163.282 82.4898 -164.397 77.8301 -10.4081 -16.6088 29.5399 -1.03914 6.72789 -8.5874 -3.55862 -1.58671 
-350.697 609.477 1979.64 -84.6166 -42.2928 -96.1686 158.622 27.3039 -178.651 -0.707819 23.5201 -0.0842537 -3.80102 -38.7369 -87.9995 8.14004 18.288 -44.0131 162.634 -30.1134 50.6414 -4.78429 -22.621 1.18756 125.733 6.04888 4.09066 6.06088 -11.8398 43.9381 2.1684 7.93355 -89.8008 11.014 4.40901 -0.0257134 -0.649422 4.4036 -0.220121 -23.241 4.21252 1.30296 -3.22832 4.21252 1.30296 92.3953 -20.1054 -105.636 29.2036 -1.81883 -86.7692 -4.31201 -24.2659 -5.00026 -60.726 31.1282 -56.537 -81.394 -52.9784 91.8882 -34.5489 -6.58034 -23.5514 166.72 80.7492 -167.835 77.1787 -11.2682 -17.7807 29.8892 -3.59071 6.63386 -9.45793 -5.85866 -3.02729 
-487.265 599.811 2141.32 -84.5186 -41.6084 -98.402 144.436 52.5261 170.496 -1.27749 14.3831 -0.184018 -5.59349 -20.1202 -63.161 5.67704 19.1005 -45.364 154.79 -37.1687 43.002 -5.73968 -28.5261 1.35834 127.342 2.40293 3.09832 12.5671 -12.2047 44.9971 2.71283 7.93236 -89.2627 10.9952 5.74213 0.919771 -0.663196 5.77702 0.665317 -23.2832 5.19959 2.60729 -3.27055 5.1996 2.60729 93.1392 -18.6703 -104.482 28.7753 -0.585998 -85.7714 -4.21169 -22.1012 -4.9717 -64.5877 32.9083 -55.7084 -81.4167 -51.2336 91.7415 -31.8165 -8.77347 -19.9387 163.788 82.2851 -164.898 75.3459 -11.4366 -18.4394 30.0222 -6.64444 6.27703 -10.4113 -8.44919 -4.998 
-633.488 591.945 2293.53 -85.1599 -41.8079 -101.061 144.554 65.178 157.701 -2.1478 9.15874 -0.412793 1.50774 -13.3732 -47.5642 4.18758 17.5134 -42.8679 147.711 -41.7354 36.6588 -6.70082 -32.1304 1.45214 120.445 2.23853 3.37479 17.6448 -12.6444 46.406 3.09935 7.99543 -88.7913 10.8396 6.72927 1.77557 -0.814679 6.80085 1.4764 -23.4534 5.88387 3.72154 -3.44079 5.88387 3.72154 93.6918 -17.4834 -103.633 28.9729 0.127098 -82.8945 -4.02001 -17.8156 -4.93045 -60.7595 34.7914 -61.9814 -81.5381 -49.8571 91.4651 -31.0216 -9.37244 -18.7733 172.065 75.3857 -173.186 83.0954 -15.2879 -20.6649 30.3497 -9.34355 6.155 -12.4229 -10.6426 -7.72256 
-787.753 593.983 2449.91 -84.8919 -43.0003 -102.929 152.942 72.8141 140.791 -3.28055 11.1284 -0.923808 9.30896 -15.1752 -39.7298 6.68836 17.0874 -42.101 140.869 -45.7449 31.7082 -7.26168 -33.9251 1.34181 113.842 2.9856 5.1057 8.57929 -11.0506 42.2778 3.32518 8.00954 -88.3078 10.7761 7.40166 2.6807 -0.875753 7.5124 2.35079 -23.5183 6.25359 4.78688 -3.50563 6.2536 4.78688 94.1417 -16.3413 -102.986 29.4557 0.456227 -79.4311 -3.93114 -15.7665 -4.91587 -57.1664 35.3248 -66.3713 -81.657 -47.8843 91.1392 -29.071 -10.6201 -16.9669 160.792 83.3825 -161.902 84.854 -19.352 -24.6721 30.868 -11.8113 5.89878 -15.1253 -12.4431 -10.2909 
-951.316 613.49 2605.53 -84.3112 -44.2306 -103.702 167.849 77.1092 119.737 -4.32835 13.7035 -1.81519 17.3388 -17.4019 -36.2468 10.3116 16.3649 -40.6355 134.095 -50.6049 27.6473 -7.50988 -33.4682 0.789547 113.976 -0.507051 5.43772 -0.565186 -8.69796 38.0544 3.44967 7.98548 -87.9591 10.7926 7.81029 3.33484 -0.858201 7.94941 2.98618 -23.4977 6.44737 5.53297 -3.48505 6.44738 5.53298 94.4278 -15.6059 -102.561 30.3661 -0.192548 -76.8437 -4.08303 -19.2454 -4.94252 -59.452 35.5529 -64.3693 -81.9071 -46.7681 90.6608 -26.1201 -12.41 -13.4051 162.75 82.6968 -163.863 78.7343 -12.5318 -18.891 30.8269 -13.5084 5.74515 -16.4806 -13.6927 -11.825 
-1106.1 641.176 2754.21 -83.7056 -46.0969 -102.827 -174.611 79.2355 97.4795 -4.80029 17.4739 -3.06015 23.5347 -18.9803 -33.3299 12.2608 16.102 -39.9959 128.059 -56.8066 25.5799 -6.89675 -32.008 0.528863 116.61 -5.46988 5.44068 2.96443 -9.81481 39.8604 3.39891 7.92926 -87.933 10.9043 7.72253 3.38518 -0.747091 7.86392 3.04043 -23.3815 6.34862 5.55416 -3.36885 6.34862 5.55415 94.7021 -15.3781 -101.944 31.8506 -2.06814 -75.3596 -4.38097 -25.7183 -5.02221 -65.8725 34.2258 -56.5095 -82.1747 -48.0702 90.3516 -24.9755 -12.9305 -13.605 166.525 80.8658 -167.64 79.5824 -12.898 -19.0989 30.7635 -14.3423 6.02594 -16.274 -14.5891 -12.0602 
-1240.28 672.956 2888.49 -83.1648 -48.0073 -100.565 -157.292 79.843 76.7373 -4.47386 20.3139 -4.22678 30.4307 -17.9694 -28.6472 10.7374 15.8426 -39.6883 124.621 -64.4223 26.1681 -5.64547 -29.572 0.357773 112.326 -6.60997 5.85146 3.33055 -9.52511 39.266 3.2983 7.77336 -88.1311 11.2364 7.43319 2.98879 -0.415856 7.55747 2.65725 -23.0509 6.19142 5.08945 -3.03828 6.19142 5.08944 94.4321 -16.0092 -102.38 33.6531 -3.63048 -72.0981 -4.50209 -28.1935 -5.06328 -63.7521 32.427 -55.7716 -82.4838 -49.7317 90.0194 -25.6791 -12.5054 -14.8778 164.764 81.8288 -165.878 79.7211 -13.6773 -19.9472 30.0541 -14.7707 6.1517 -15.6407 -15.2139 -11.0346 
-1356.75 701.456 3011.51 -85.0327 -49.6146 -100.134 -152.35 77.0117 69.6915 -4.51573 17.6641 -4.6818 35.3624 -12.4749 -25.6151 6.65678 16.0393 -40.4051 115.082 -71.6087 19.4634 -4.04975 -28.25 0.266408 106.527 -5.64882 6.58884 4.48125 -9.83836 39.8107 3.12337 7.75852 -88.3702 11.2865 6.97428 2.55326 -0.367543 7.07985 2.24254 -22.9972 5.88434 4.53591 -2.98461 5.88434 4.5359 93.7617 -17.3893 -103.499 36.1052 -5.18317 -67.1322 -4.39978 -26.1071 -5.02743 -61.0328 29.3333 -53.5158 -82.5393 -51.0747 90.0519 -27.9814 -11.068 -18.0102 162.782 82.6861 -163.896 80.4138 -14.4792 -20.6749 29.0843 -14.7431 5.62801 -16.0236 -15.0156 -10.3026 
-1468.88 706.575 3130.83 -88.9446 -51.1297 -101.873 -156.272 70.9571 72.4934 -4.86519 14.7053 -4.56985 35.8849 -7.96979 -23.4294 8.42896 15.7852 -39.828 88.0984 -76.2788 -5.76305 -2.6783 -27.1976 0.201459 102.39 -3.9816 7.47789 3.56864 -10.0682 40.331 2.81074 7.90324 -88.5868 11.0126 6.24997 2.21416 -0.644707 6.34133 1.93599 -23.2574 5.29543 3.99364 -3.24472 5.29542 3.99363 93.1233 -18.8773 -104.432 38.7314 -6.28515 -61.4011 -4.1874 -21.5694 -4.96628 -51.8482 25.4218 -55.5261 -82.7963 -52.2884 89.7757 -31.0125 -8.99235 -21.4704 167.84 79.9861 -168.956 80.2094 -13.6003 -19.7345 27.8649 -13.9747 4.66357 -16.0841 -13.9123 -10.0075 
-1589.39 698.622 3252.49 -92.8917 -52.5005 -104.566 -162.44 64.2347 78.441 -5.12824 16.1161 -4.2679 28.5909 -10.9602 -25.0322 5.69077 17.1071 -42.2208 55.6179 -74.6888 -37.8287 -1.66208 -23.4463 0.153117 100.247 -1.69475 6.61531 0.709268 -10.6124 41.5314 2.3755 8.03372 -88.6893 10.7595 5.3347 2.11393 -0.901824 5.42252 1.87653 -23.4888 4.45277 3.62133 -3.47619 4.45277 3.62132 92.5803 -20.8317 -104.892 41.7932 -7.32034 -55.2055 -3.93027 -15.7484 -4.91574 -39.1997 19.8855 -58.2875 -83.1239 -53.4749 89.4023 -34.761 -6.10359 -25.3361 167.664 80.1149 -168.779 76.5162 -13.9031 -21.1238 26.3176 -12.9672 3.25898 -15.7908 -12.4771 -9.54235 
-1714.04 689.918 3376.1 -96.0831 -52.8039 -108.226 -166.919 56.3301 83.6893 -5.06777 17.2936 -3.29101 22.5145 -14.2893 -26.6765 4.78556 17.2066 -42.4924 43.6818 -68.3141 -51.589 -1.01859 -16.9971 0.0963655 98.9986 1.7103 7.73165 0.879049 -10.1091 40.5562 1.88546 8.2658 -88.6102 10.2946 4.39172 2.38285 -1.37072 4.49231 2.18701 -23.9293 3.47286 3.59293 -3.91661 3.47286 3.59292 92.2662 -22.4514 -104.95 44.7987 -8.0044 -49.2758 -3.84863 -13.8301 -4.90554 -35.7701 16.7899 -55.0856 -83.4335 -54.6505 89.064 -38.6883 -1.91717 -31.997 168.432 79.5284 -169.54 77.3847 -14.3709 -21.4312 25.5776 -11.7446 2.11629 -14.4603 -11.0218 -9.14658 
-1857.29 701.895 3500.66 -98.0146 -53.2771 -111.636 -168.733 48.7454 86.1312 -4.12367 17.7872 -1.88195 29.4944 -14.2682 -27.9448 5.46981 17.3147 -42.5369 43.6899 -62.7102 -54.3995 -0.629257 -10.7214 0.0602492 97.093 4.75437 9.64367 0.579593 -9.56273 39.5527 1.33252 8.51719 -88.4256 9.78968 3.36917 2.85433 -1.87972 3.49149 2.70328 -24.4091 2.35623 3.73432 -4.39645 2.35624 3.73433 91.8075 -24.3317 -105.21 47.0522 -7.51733 -43.1286 -3.70287 -10.3871 -4.89226 -35.978 16.1705 -53.2327 -83.7207 -55.909 88.775 -42.4292 3.60713 -40.2222 174.227 70.9269 -175.338 77.9949 -11.3873 -17.6882 25.9838 -10.6267 1.32911 -12.8922 -9.78718 -9.00906 
-2002.96 693.198 3628.57 -99.7688 -52.2362 -115.779 -169.907 39.6194 89.7871 -3.6847 17.459 -1.62348 39.6794 -15.7444 -29.6105 1.11255 15.8436 -40.5675 50.6779 -55.6934 -53.6029 -0.472585 -11.9857 0.0355241 99.9921 6.97797 10.4555 -2.07354 -9.23741 39.1648 0.816271 8.86969 -88.0975 9.08168 2.47823 3.59378 -2.59157 2.6339 3.48135 -25.0935 1.28467 4.17149 -5.0808 1.28467 4.17148 91.5267 -24.8392 -105.618 49.4039 -6.75695 -36.6235 -3.75633 -11.6467 -4.89651 -35.665 15.0501 -50.5693 -83.8598 -55.7991 88.5673 -44.7887 9.67053 -49.5799 175.723 65.6991 -176.848 84.1578 -9.59903 -14.4708 27.2519 -9.22333 0.448604 -11.1753 -8.24351 -8.82163 
-2140.65 658.694 3761.48 -100.308 -51.2326 -115.39 -172.82 28.4387 99.0549 -3.69059 18.5122 -1.5242 48.4139 -18.8134 -28.5208 10.539 17.851 -43.2036 60.0168 -51.2176 -54.7826 -0.174209 -18.9718 0.0261584 107.753 11.1421 8.71031 -3.01562 -10.3149 41.1226 0.393228 9.03902 -88.2146 8.75976 1.57747 3.42951 -2.91455 1.72681 3.35685 -25.4148 0.474634 3.74459 -5.40212 0.474642 3.74459 92.4935 -23.8943 -103.873 53.5214 -7.56023 -30.9477 -3.24988 0.601232 -4.91857 -28.5063 13.3809 -55.7243 -84.288 -54.3837 87.8099 -45.3765 14.958 -58.6902 175.503 66.6067 -176.634 88.5153 -14.3144 -18.4065 27.9738 -7.24929 0.417148 -9.91237 -6.46338 -8.27876 
-2277.92 619.509 3895.18 -98.2 -49.9144 -111.253 -173.151 15.248 109.221 -3.69099 19.1041 -1.46901 61.3576 -22.3654 -26.568 16.3567 18.4516 -44.1632 82.2835 -48.3121 -48.6489 -0.340032 -25.1585 0.0188161 116.969 21.4671 9.17861 -2.8538 -10.8882 42.1274 -0.0626817 8.81658 -88.4843 9.22312 0.554097 2.96345 -2.45107 0.683943 2.93621 -24.9589 -0.361715 2.99299 -4.94627 -0.361708 2.993 92.808 -23.7727 -103.224 56.7165 -6.96869 -24.6657 -3.4338 -3.8543 -4.89411 -26.3388 12.5389 -56.5614 -84.3057 -53.6332 87.7025 -43.5543 17.645 -67.4207 175.367 67.1522 -176.497 88.3943 -13.0493 -17.156 27.129 -4.38634 0.378258 -9.66063 -3.79207 -7.36422 
-2419.86 589.599 4029.41 -94.9239 -49.1854 -105.664 -170.947 0.649281 118.885 -4.04339 20.9761 -1.58069 80.3136 -24.2485 -21.8149 16.6515 18.3195 -43.8988 120.346 -41.4771 -32.4082 -0.407853 -27.3944 0.0151506 118.148 43.5884 11.2387 -1.23009 -10.7588 41.8498 -0.621158 8.45675 -88.8567 9.96294 -0.718368 2.32861 -1.70993 -0.615198 2.35794 -24.2336 -1.38487 2.00527 -4.22097 -1.38488 2.00526 92.811 -23.9061 -103.166 57.9254 -5.05561 -18.9254 -3.94395 -16.0589 -4.91476 -28.7458 13.4875 -55.7303 -83.7793 -52.6986 88.37 -40.3375 17.7857 -75.2053 175.397 67.0528 -176.522 90.8836 -13.7688 -17.3052 26.1028 -1.06157 0.435147 -9.86725 -0.723793 -5.87109 
-2563.83 566.07 4165.07 -93.1185 -47.8222 -102.104 -165.424 -15.7865 126.191 -4.56936 22.338 -1.91318 94.9145 -23.3873 -17.4807 22.6524 19.0623 -45.4537 169.717 -16.5059 -13.4049 -0.668627 -27.4641 0.0137179 61.6019 67.3502 52.8828 -0.495088 -10.5403 41.4303 -1.14791 8.22838 -89.2393 10.43 -1.93799 1.68196 -1.24068 -1.86208 1.76561 -23.7836 -2.35384 1.02164 -3.7709 -2.35384 1.02162 92.8754 -22.8353 -103.422 58.0309 -2.53921 -13.2861 -4.35257 -25.1245 -5.01255 -29.9999 13.6364 -54.2083 -83.308 -51.7718 88.9716 -37.2145 15.8534 -80.42 174.953 68.6796 -176.076 93.149 -14.704 -17.6541 25.6028 2.49843 1.15203 -10.638 2.31873 -3.95946 
